{"title":"Entourage.2015.DVDRip.X264.AC3.VAIN","uid":12503496,"size":1334100843,"categoryP":"video","categoryS":"movies","magnet":"?xt=urn:btih:07b4ce9c70c011f75287a8835a2fef9cb32c0b66&amp;dn=Entourage.2015.DVDRip.X264.AC3.VAIN&amp;tr=udp%3A%2F%2Ftracker.leechers-paradise.org%3A6969&amp;tr=udp%3A%2F%2Fzer0day.ch%3A1337&amp;tr=udp%3A%2F%2Fopen.demonii.com%3A1337&amp;tr=udp%3A%2F%2Ftracker.coppersurfer.tk%3A6969&amp;tr=udp%3A%2F%2Fexodus.desync.com%3A6969","seeders":0,"leechers":0,"uploader":"TvTeam","files":4,"time":1443413899,"description":"------------------------------------------------------------------------\r\n\r  https://www.torrenting.com\r\n\r\nSign up is OPEN - for time being. Come and have fun.\r\n\r\n------------------------------------------------------------------------[img]http://i.imgur.com/PN8pXal.jpg[/img]\r\n\r\n[img]http://i.imgur.com/J6B9mzF.png[/img]\r\n\r\n\r\nIMDB:http://www.imdb.com/title/tt1674771/\r\n\r\nMovie star Vincent Chase, together with his boys Eric, Turtle, and Johnny, are back - and back in business with super agent-turned-studio head Ari Gold on a risky project that will serve as Vince's directorial debut.\r\n\r\n\r\nEntourage.2015.DVDRip.X264.AC3.VAIN.mkv\r\nFormat                      : Matroska\r\nFormat version              : Version 2\r\nFile size                   : 1.23 GiB\r\nDuration                    : 2h 3mn\r\nOverall bit rate            : 1 426 Kbps\r\nEncoded date                : UTC 2015-09-27 21:18:29\r\nWriting application         : mkvmerge v5.7.0 ('The Whirlwind') built on Jul  8 2012 20:08:51\r\nWriting library             : libebml v1.2.3 + libmatroska v1.3.0\r\n\r\nVideo\r\nID                          : 1\r\nFormat                      : AVC\r\nFormat/Info                 : Advanced Video Codec\r\nFormat profile              :   \r\nFormat settings, CABAC      : Yes\r\nFormat settings, ReFrames   : 6 frames\r\nMuxing mode                 : Header stripping\r\nCodec ID                    : V_MPEG4/ISO/AVC\r\nDuration                    : 2h 3mn\r\nBit rate                    : 1 014 Kbps\r\nNominal bit rate            : 1 099 Kbps\r\nWidth                       : 720 pixels\r\nHeight                      : 304 pixels\r\nDisplay aspect ratio        : 2.35:1\r\nFrame rate mode             : Constant\r\nFrame rate                  : 23.976 fps\r\nColor space                 : YUV\r\nChroma subsampling          : 4:2:0\r\nBit depth                   : 8 bits\r\nScan type                   : Progressive\r\nBits/(Pixel*Frame)          : 0.193\r\nStream size                 : 894 MiB (71%)\r\nWriting library             : x264 core 142 r2431 ac76440\r\nEncoding settings           : cabac=1 / ref=6 / deblock=1:-1:-1 / analyse=0x3:0x113 / me=umh / subme=10 / psy=1 / psy_rd=1.00:0.00 / mixed_ref=1 / me_range=64 / chroma_me=1 / trellis=2 / 8x8dct=1 / cqm=0 / deadzone=21,11 / fast_pskip=0 / chroma_qp_offset=-2 / threads=6 / lookahead_threads=1 / sliced_threads=0 / nr=0 / decimate=0 / interlaced=0 / bluray_compat=0 / constrained_intra=0 / bframes=6 / b_pyramid=0 / b_adapt=2 / b_bias=0 / direct=3 / weightb=1 / open_gop=0 / weightp=2 / keyint=240 / keyint_min=23 / scenecut=40 / intra_refresh=0 / rc_lookahead=40 / rc=2pass / mbtree=1 / bitrate=1099 / ratetol=1.0 / qcomp=0.60 / qpmin=10 / qpmax=51 / qpstep=4 / cplxblur=20.0 / qblur=0.5 / vbv_maxrate=16800 / vbv_bufsize=16800 / nal_hrd=none / filler=0 / ip_ratio=1.40 / aq=1:1.00\r\nDefault                     : Yes\r\nForced                      : No\r\n\r\nAudio\r\nID                          : 2\r\nFormat                      : AC-3\r\nFormat/Info                 : Audio Coding 3\r\nMode extension              : CM (complete main)\r\nFormat settings, Endianness : Big\r\nMuxing mode                 : Header stripping\r\nCodec ID                    : A_AC3\r\nDuration                    : 2h 3mn\r\nBit rate mode               : Constant\r\nBit rate                    : 384 Kbps\r\nChannel(s)                  : 6 channels\r\nChannel positions           : Front: L C R, Side: L R, LFE\r\nSampling rate               : 48.0 KHz\r\nCompression mode            : Lossy\r\nStream size                 : 339 MiB (27%)\r\nDefault                     : Yes\r\nForced                      : No\r\n\r\nscreens:\r\n\r\n[img]http://i.imgur.com/AhPKavO.jpg[/img]\r\n[img]http://i.imgur.com/ppkqtmd.jpg[/img]\r\n[img]http://i.imgur.com/YPsHRx2.jpg[/img]\r\n\r\nHive-CM8 | Rx | REFiLL | JEDI | DREAMER n' LADY | 26k |Unevano | EsX | TOFFEE\r\nGH0ST | ViSiON | Sugarb | DeviAntsRUs | STARLETS | GUSH | A.C.A.B. | jamie111 | TED |\r\n\r\nAnd all the release grps that don't hide behind new names, or live in the past n\r\n\r\nglory of old has been that neva were release grps\r\n\r\nCheer's to our wives n girlfriends... may they neva meet","torrent":{"xt":"urn:btih:07b4ce9c70c011f75287a8835a2fef9cb32c0b66","amp;dn":"Entourage.2015.DVDRip.X264.AC3.VAIN","amp;tr":["udp%3A%2F%2Ftracker.leechers-paradise.org%3A6969","udp%3A%2F%2Fzer0day.ch%3A1337","udp%3A%2F%2Fopen.demonii.com%3A1337","udp%3A%2F%2Ftracker.coppersurfer.tk%3A6969","udp%3A%2F%2Fexodus.desync.com%3A6969"],"infoHash":"07b4ce9c70c011f75287a8835a2fef9cb32c0b66","infoHashBuffer":{"type":"Buffer","data":[7,180,206,156,112,192,17,247,82,135,168,131,90,47,239,156,179,44,11,102]},"announce":[],"urlList":[]}}